<?xml version="1.0" standalone="no"?>
<!DOCTYPE svg PUBLIC "-//W3C//DTD SVG 20010904//EN"
 "http://www.w3.org/TR/2001/REC-SVG-20010904/DTD/svg10.dtd">
<svg version="1.0" xmlns="http://www.w3.org/2000/svg"
 width="150.000000pt" height="150.000000pt" viewBox="0 0 150.000000 150.000000"
 preserveAspectRatio="xMidYMid meet">
<metadata>
Created by potrace 1.11, written by Peter Selinger 2001-2013
</metadata>
<g transform="translate(0.000000,150.000000) scale(0.100000,-0.100000)"
fill="#000000" stroke="none">
<path d="M740 1474 c-348 -92 -620 -456 -620 -830 0 -292 162 -526 414 -599
75 -22 219 -22 301 0 274 72 500 302 592 602 23 78 27 105 27 228 0 125 -3
148 -27 221 -63 189 -209 332 -388 379 -69 19 -228 18 -299 -1z m-80 -429 c52
-27 60 -62 60 -279 0 -193 0 -197 -23 -220 -40 -40 -184 -59 -269 -36 -54 15
-95 61 -104 115 -13 92 53 157 203 199 l78 22 -2 58 c-2 69 -21 96 -68 96 -34
0 -63 -25 -83 -72 -15 -36 -56 -47 -82 -23 -53 48 12 133 120 156 47 10 135 2
170 -16z m508 -4 c43 -22 72 -52 98 -101 15 -27 19 -57 19 -135 0 -94 -2 -105
-33 -168 -56 -113 -151 -160 -249 -125 l-42 15 -3 -131 -3 -131 -55 0 -55 0 0
369 0 369 27 20 c63 47 221 56 296 18z"/>
<path d="M545 774 c-82 -30 -119 -92 -92 -157 27 -64 124 -72 147 -12 6 15 10
62 10 106 0 87 0 87 -65 63z"/>
<path d="M980 980 c-19 -19 -20 -33 -20 -200 l0 -180 26 -10 c66 -26 130 2
155 67 31 80 27 208 -7 275 -31 60 -115 87 -154 48z"/>
</g>
</svg>
